<svg height="512" viewBox="0 0 512 512" width="512" xmlns="http://www.w3.org/2000/svg"><g><g><g><path d="m496 60v300h-480v-300a19.994 19.994 0 0 1 20-20h440a19.994 19.994 0 0 1 20 20z" fill="#78b9eb"/><path d="m16 360v28a19.994 19.994 0 0 0 20 20h440a19.994 19.994 0 0 0 20-20v-28z" fill="#e0e0e2"/><path d="m328 448h-144l16-40h112z" fill="#787680"/><path d="m136 448h240v24h-240z" fill="#e0e0e2"/></g><path d="m264 80v104h-32v48l-48-48h-88v-104z" fill="#ffda44"/><g><path d="m382.89 176.55c-47.38 23.33-78.89 15.45-78.89 15.45v-7a40.015 40.015 0 0 1 40-40 39.305 39.305 0 0 1 28.28 12.22 41.7 41.7 0 0 1 10.53 19.02c.03.1.06.21.08.31z" fill="#ff5023"/><path d="m384 186v31a40 40 0 0 1 -80 0v-25s31.51 7.88 78.89-15.45a40.59 40.59 0 0 1 1.11 9.45z" fill="#ffdaaa"/><path d="m384 176c-.37.19-.74.37-1.11.55-.02-.1-.05-.21-.08-.31z" fill="#e0e0e2"/><path d="m360 273h16a40 40 0 0 1 40 40v45h-144v-45a40 40 0 0 1 40-40h16" fill="#006df0"/><path d="m360 257v16a16 16 0 0 1 -32 0v-16z" fill="#ffdaaa"/></g></g><g><path d="m476 32h-440a28.031 28.031 0 0 0 -28 28v328a28.031 28.031 0 0 0 28 28h152.18l-9.6 24h-42.58a8 8 0 0 0 -8 8v24a8 8 0 0 0 8 8h240a8 8 0 0 0 8-8v-24a8 8 0 0 0 -8-8h-42.58l-9.6-24h152.18a28.031 28.031 0 0 0 28-28v-328a28.031 28.031 0 0 0 -28-28zm-108 424v8h-224v-8zm-172.18-16 9.6-24h101.16l9.6 24zm292.18-52a12.01 12.01 0 0 1 -12 12h-440a12.01 12.01 0 0 1 -12-12v-20h464zm-169.65-187.72c12.94 0 32.94-2.34 57.65-12.79v28.51a32 32 0 0 1 -64 0v-15.92c1.88.12 3.99.2 6.35.2zm-6.35-16.24v-.04a32.03 32.03 0 0 1 32-32c12.65 0 23.86 8.04 29.01 19.34-19.84 8.84-36.12 11.77-46.71 12.62a92.371 92.371 0 0 1 -14.3.08zm40 79.28v8.68a8 8 0 0 1 -16 0v-8.68a47.4 47.4 0 0 0 16 0zm-8 32.68a24.031 24.031 0 0 0 22.62-16h9.38a32.03 32.03 0 0 1 32 32v40h-16v-32a8 8 0 0 0 -16 0v32h-64v-32a8 8 0 0 0 -16 0v32h-16v-40a32.03 32.03 0 0 1 32-32h9.38a24.031 24.031 0 0 0 22.62 16zm144 56h-64v-40a48.051 48.051 0 0 0 -48-48h-8v-6.46a48.012 48.012 0 0 0 24-41.54v-32c0-.23-.01-.45-.03-.68a49.189 49.189 0 0 0 -13.93-32.66 47.054 47.054 0 0 0 -34.04-14.66 48.051 48.051 0 0 0 -48 48v32a48.012 48.012 0 0 0 24 41.54v6.46h-8a48.051 48.051 0 0 0 -48 48v40h-240v-292a12.01 12.01 0 0 1 12-12h440a12.01 12.01 0 0 1 12 12z"/><path d="m264 192a8 8 0 0 0 8-8v-104a8 8 0 0 0 -8-8h-168a8 8 0 0 0 -8 8v104a8 8 0 0 0 8 8h84.686l45.657 45.657a8 8 0 0 0 13.657-5.657v-40zm-32-16a8 8 0 0 0 -8 8v28.686l-34.343-34.343a8 8 0 0 0 -5.657-2.343h-80v-88h152v88z"/><circle cx="176" cy="128" r="8"/><circle cx="144" cy="128" r="8"/><circle cx="208" cy="128" r="8"/></g></g></svg>